<mxfile host="Electron" agent="Mozilla/5.0 (X11; Linux x86_64) AppleWebKit/537.36 (KHTML, like Gecko) draw.io/24.7.17 Chrome/128.0.6613.186 Electron/32.2.2 Safari/537.36" version="24.7.17">
  <diagram name="Page-1" id="apXVx7zRkdp1ph0XhbYv">
    <mxGraphModel dx="2154" dy="2317" grid="1" gridSize="10" guides="1" tooltips="1" connect="1" arrows="1" fold="1" page="1" pageScale="1" pageWidth="850" pageHeight="1100" math="0" shadow="0">
      <root>
        <mxCell id="0" />
        <mxCell id="1" parent="0" />
        <mxCell id="ld3Kfe4ePmxYZ37ksmQU-3" style="edgeStyle=orthogonalEdgeStyle;rounded=0;orthogonalLoop=1;jettySize=auto;html=1;entryX=0.5;entryY=0;entryDx=0;entryDy=0;" edge="1" parent="1" source="ld3Kfe4ePmxYZ37ksmQU-1" target="ld3Kfe4ePmxYZ37ksmQU-2">
          <mxGeometry relative="1" as="geometry" />
        </mxCell>
        <mxCell id="ld3Kfe4ePmxYZ37ksmQU-1" value="start" style="ellipse;whiteSpace=wrap;html=1;labelBackgroundColor=none;" vertex="1" parent="1">
          <mxGeometry x="270" y="70" width="120" height="80" as="geometry" />
        </mxCell>
        <mxCell id="ld3Kfe4ePmxYZ37ksmQU-5" style="edgeStyle=orthogonalEdgeStyle;rounded=0;orthogonalLoop=1;jettySize=auto;html=1;entryX=0.5;entryY=0;entryDx=0;entryDy=0;" edge="1" parent="1" source="ld3Kfe4ePmxYZ37ksmQU-2" target="ld3Kfe4ePmxYZ37ksmQU-4">
          <mxGeometry relative="1" as="geometry" />
        </mxCell>
        <mxCell id="ld3Kfe4ePmxYZ37ksmQU-2" value="a[2] = ...&lt;div&gt;b[2] = ...&lt;br&gt;&lt;/div&gt;&lt;div&gt;c[2] = ...&lt;br&gt;&lt;/div&gt;" style="rounded=1;whiteSpace=wrap;html=1;" vertex="1" parent="1">
          <mxGeometry x="270" y="200" width="120" height="60" as="geometry" />
        </mxCell>
        <mxCell id="ld3Kfe4ePmxYZ37ksmQU-9" style="edgeStyle=orthogonalEdgeStyle;rounded=0;orthogonalLoop=1;jettySize=auto;html=1;entryX=0.5;entryY=0;entryDx=0;entryDy=0;" edge="1" parent="1" source="ld3Kfe4ePmxYZ37ksmQU-4" target="ld3Kfe4ePmxYZ37ksmQU-6">
          <mxGeometry relative="1" as="geometry" />
        </mxCell>
        <mxCell id="ld3Kfe4ePmxYZ37ksmQU-4" value="print a as coordinates of point A" style="shape=parallelogram;perimeter=parallelogramPerimeter;whiteSpace=wrap;html=1;fixedSize=1;" vertex="1" parent="1">
          <mxGeometry x="220" y="310" width="220" height="60" as="geometry" />
        </mxCell>
        <mxCell id="ld3Kfe4ePmxYZ37ksmQU-8" style="edgeStyle=orthogonalEdgeStyle;rounded=0;orthogonalLoop=1;jettySize=auto;html=1;entryX=0.5;entryY=0;entryDx=0;entryDy=0;" edge="1" parent="1" source="ld3Kfe4ePmxYZ37ksmQU-6" target="ld3Kfe4ePmxYZ37ksmQU-7">
          <mxGeometry relative="1" as="geometry" />
        </mxCell>
        <mxCell id="ld3Kfe4ePmxYZ37ksmQU-6" value="print b as coordinates of point B" style="shape=parallelogram;perimeter=parallelogramPerimeter;whiteSpace=wrap;html=1;fixedSize=1;" vertex="1" parent="1">
          <mxGeometry x="220" y="420" width="220" height="60" as="geometry" />
        </mxCell>
        <mxCell id="ld3Kfe4ePmxYZ37ksmQU-18" style="edgeStyle=orthogonalEdgeStyle;rounded=0;orthogonalLoop=1;jettySize=auto;html=1;exitX=0.5;exitY=1;exitDx=0;exitDy=0;entryX=0.5;entryY=0;entryDx=0;entryDy=0;" edge="1" parent="1" source="ld3Kfe4ePmxYZ37ksmQU-7" target="ld3Kfe4ePmxYZ37ksmQU-10">
          <mxGeometry relative="1" as="geometry" />
        </mxCell>
        <mxCell id="ld3Kfe4ePmxYZ37ksmQU-7" value="print c as coordinates of point C" style="shape=parallelogram;perimeter=parallelogramPerimeter;whiteSpace=wrap;html=1;fixedSize=1;" vertex="1" parent="1">
          <mxGeometry x="220" y="530" width="220" height="60" as="geometry" />
        </mxCell>
        <mxCell id="ld3Kfe4ePmxYZ37ksmQU-21" style="edgeStyle=orthogonalEdgeStyle;rounded=0;orthogonalLoop=1;jettySize=auto;html=1;entryX=0.5;entryY=0;entryDx=0;entryDy=0;" edge="1" parent="1" source="ld3Kfe4ePmxYZ37ksmQU-10" target="ld3Kfe4ePmxYZ37ksmQU-20">
          <mxGeometry relative="1" as="geometry" />
        </mxCell>
        <mxCell id="ld3Kfe4ePmxYZ37ksmQU-10" value="print result of sideLen(a,b)" style="shape=parallelogram;perimeter=parallelogramPerimeter;whiteSpace=wrap;html=1;fixedSize=1;" vertex="1" parent="1">
          <mxGeometry x="235" y="640" width="190" height="60" as="geometry" />
        </mxCell>
        <mxCell id="ld3Kfe4ePmxYZ37ksmQU-19" style="edgeStyle=orthogonalEdgeStyle;rounded=0;orthogonalLoop=1;jettySize=auto;html=1;entryX=0.5;entryY=0;entryDx=0;entryDy=0;" edge="1" parent="1" source="ld3Kfe4ePmxYZ37ksmQU-11" target="ld3Kfe4ePmxYZ37ksmQU-14">
          <mxGeometry relative="1" as="geometry" />
        </mxCell>
        <mxCell id="ld3Kfe4ePmxYZ37ksmQU-11" value="square(a,b,c)" style="ellipse;whiteSpace=wrap;html=1;" vertex="1" parent="1">
          <mxGeometry x="870" y="70" width="120" height="80" as="geometry" />
        </mxCell>
        <mxCell id="ld3Kfe4ePmxYZ37ksmQU-14" value="return 0.5 * ((a[0] * b[1] + b[0] * c[1] + c[0] * a[1]) - (a[1] * b[0] + b[1] * c[0] + c[1] * a[0]))" style="ellipse;whiteSpace=wrap;html=1;" vertex="1" parent="1">
          <mxGeometry x="780" y="220" width="300" height="80" as="geometry" />
        </mxCell>
        <mxCell id="ld3Kfe4ePmxYZ37ksmQU-26" style="edgeStyle=orthogonalEdgeStyle;rounded=0;orthogonalLoop=1;jettySize=auto;html=1;entryX=0.5;entryY=0;entryDx=0;entryDy=0;" edge="1" parent="1" source="ld3Kfe4ePmxYZ37ksmQU-20" target="ld3Kfe4ePmxYZ37ksmQU-25">
          <mxGeometry relative="1" as="geometry" />
        </mxCell>
        <mxCell id="ld3Kfe4ePmxYZ37ksmQU-20" value="print result of square(a,b,c)" style="shape=parallelogram;perimeter=parallelogramPerimeter;whiteSpace=wrap;html=1;fixedSize=1;" vertex="1" parent="1">
          <mxGeometry x="235" y="750" width="190" height="60" as="geometry" />
        </mxCell>
        <mxCell id="ld3Kfe4ePmxYZ37ksmQU-24" style="edgeStyle=orthogonalEdgeStyle;rounded=0;orthogonalLoop=1;jettySize=auto;html=1;entryX=0.5;entryY=0;entryDx=0;entryDy=0;" edge="1" parent="1" source="ld3Kfe4ePmxYZ37ksmQU-22" target="ld3Kfe4ePmxYZ37ksmQU-23">
          <mxGeometry relative="1" as="geometry" />
        </mxCell>
        <mxCell id="ld3Kfe4ePmxYZ37ksmQU-22" value="sideLen(a,b)" style="ellipse;whiteSpace=wrap;html=1;" vertex="1" parent="1">
          <mxGeometry x="590" y="70" width="120" height="80" as="geometry" />
        </mxCell>
        <mxCell id="ld3Kfe4ePmxYZ37ksmQU-23" value="return (Ax-Bx)^2 + (Ay-By)^2" style="ellipse;whiteSpace=wrap;html=1;" vertex="1" parent="1">
          <mxGeometry x="560" y="220" width="180" height="80" as="geometry" />
        </mxCell>
        <mxCell id="ld3Kfe4ePmxYZ37ksmQU-57" style="edgeStyle=orthogonalEdgeStyle;rounded=0;orthogonalLoop=1;jettySize=auto;html=1;entryX=0.5;entryY=0;entryDx=0;entryDy=0;" edge="1" parent="1" source="ld3Kfe4ePmxYZ37ksmQU-25" target="ld3Kfe4ePmxYZ37ksmQU-56">
          <mxGeometry relative="1" as="geometry" />
        </mxCell>
        <mxCell id="ld3Kfe4ePmxYZ37ksmQU-25" value="res = squaren(k, ...)" style="rounded=1;whiteSpace=wrap;html=1;" vertex="1" parent="1">
          <mxGeometry x="270" y="860" width="120" height="60" as="geometry" />
        </mxCell>
        <mxCell id="ld3Kfe4ePmxYZ37ksmQU-29" style="edgeStyle=orthogonalEdgeStyle;rounded=0;orthogonalLoop=1;jettySize=auto;html=1;exitX=0.5;exitY=1;exitDx=0;exitDy=0;entryX=0.5;entryY=0;entryDx=0;entryDy=0;" edge="1" parent="1" source="ld3Kfe4ePmxYZ37ksmQU-27" target="ld3Kfe4ePmxYZ37ksmQU-28">
          <mxGeometry relative="1" as="geometry" />
        </mxCell>
        <mxCell id="ld3Kfe4ePmxYZ37ksmQU-27" value="&lt;div&gt;&lt;span style=&quot;background-color: initial;&quot;&gt;squaren&lt;/span&gt;&lt;br&gt;&lt;/div&gt;" style="ellipse;whiteSpace=wrap;html=1;" vertex="1" parent="1">
          <mxGeometry x="1220" y="70" width="120" height="80" as="geometry" />
        </mxCell>
        <mxCell id="ld3Kfe4ePmxYZ37ksmQU-31" style="edgeStyle=orthogonalEdgeStyle;rounded=0;orthogonalLoop=1;jettySize=auto;html=1;entryX=0.5;entryY=0;entryDx=0;entryDy=0;" edge="1" parent="1" source="ld3Kfe4ePmxYZ37ksmQU-28" target="ld3Kfe4ePmxYZ37ksmQU-30">
          <mxGeometry relative="1" as="geometry" />
        </mxCell>
        <mxCell id="ld3Kfe4ePmxYZ37ksmQU-28" value="vector&amp;lt;double&amp;gt; x_coords, y_coords" style="rounded=1;whiteSpace=wrap;html=1;" vertex="1" parent="1">
          <mxGeometry x="1175" y="200" width="210" height="60" as="geometry" />
        </mxCell>
        <mxCell id="ld3Kfe4ePmxYZ37ksmQU-33" style="edgeStyle=orthogonalEdgeStyle;rounded=0;orthogonalLoop=1;jettySize=auto;html=1;entryX=0.5;entryY=0;entryDx=0;entryDy=0;" edge="1" parent="1" source="ld3Kfe4ePmxYZ37ksmQU-30" target="ld3Kfe4ePmxYZ37ksmQU-32">
          <mxGeometry relative="1" as="geometry" />
        </mxCell>
        <mxCell id="ld3Kfe4ePmxYZ37ksmQU-30" value="va_list args" style="rounded=1;whiteSpace=wrap;html=1;" vertex="1" parent="1">
          <mxGeometry x="1220" y="310" width="120" height="60" as="geometry" />
        </mxCell>
        <mxCell id="ld3Kfe4ePmxYZ37ksmQU-35" style="edgeStyle=orthogonalEdgeStyle;rounded=0;orthogonalLoop=1;jettySize=auto;html=1;entryX=0.5;entryY=0;entryDx=0;entryDy=0;" edge="1" parent="1" source="ld3Kfe4ePmxYZ37ksmQU-32" target="ld3Kfe4ePmxYZ37ksmQU-34">
          <mxGeometry relative="1" as="geometry" />
        </mxCell>
        <mxCell id="ld3Kfe4ePmxYZ37ksmQU-49" style="edgeStyle=orthogonalEdgeStyle;rounded=0;orthogonalLoop=1;jettySize=auto;html=1;exitX=0;exitY=0.5;exitDx=0;exitDy=0;entryX=0;entryY=0.5;entryDx=0;entryDy=0;" edge="1" parent="1" source="ld3Kfe4ePmxYZ37ksmQU-32" target="ld3Kfe4ePmxYZ37ksmQU-48">
          <mxGeometry relative="1" as="geometry">
            <Array as="points">
              <mxPoint x="1170" y="460" />
              <mxPoint x="1170" y="1020" />
            </Array>
          </mxGeometry>
        </mxCell>
        <mxCell id="ld3Kfe4ePmxYZ37ksmQU-32" value="i = 0; i &amp;lt; k; ++i" style="shape=hexagon;perimeter=hexagonPerimeter2;whiteSpace=wrap;html=1;fixedSize=1;" vertex="1" parent="1">
          <mxGeometry x="1220" y="420" width="120" height="80" as="geometry" />
        </mxCell>
        <mxCell id="ld3Kfe4ePmxYZ37ksmQU-37" style="edgeStyle=orthogonalEdgeStyle;rounded=0;orthogonalLoop=1;jettySize=auto;html=1;entryX=0.5;entryY=0;entryDx=0;entryDy=0;" edge="1" parent="1" source="ld3Kfe4ePmxYZ37ksmQU-34" target="ld3Kfe4ePmxYZ37ksmQU-36">
          <mxGeometry relative="1" as="geometry" />
        </mxCell>
        <mxCell id="ld3Kfe4ePmxYZ37ksmQU-34" value="x = next variadic function argument" style="rounded=1;whiteSpace=wrap;html=1;" vertex="1" parent="1">
          <mxGeometry x="1220" y="550" width="120" height="60" as="geometry" />
        </mxCell>
        <mxCell id="ld3Kfe4ePmxYZ37ksmQU-41" style="edgeStyle=orthogonalEdgeStyle;rounded=0;orthogonalLoop=1;jettySize=auto;html=1;entryX=0.5;entryY=0;entryDx=0;entryDy=0;" edge="1" parent="1" source="ld3Kfe4ePmxYZ37ksmQU-36" target="ld3Kfe4ePmxYZ37ksmQU-39">
          <mxGeometry relative="1" as="geometry" />
        </mxCell>
        <mxCell id="ld3Kfe4ePmxYZ37ksmQU-36" value="y = next variadic function argument" style="rounded=1;whiteSpace=wrap;html=1;" vertex="1" parent="1">
          <mxGeometry x="1220" y="660" width="120" height="60" as="geometry" />
        </mxCell>
        <mxCell id="ld3Kfe4ePmxYZ37ksmQU-42" style="edgeStyle=orthogonalEdgeStyle;rounded=0;orthogonalLoop=1;jettySize=auto;html=1;exitX=0.5;exitY=1;exitDx=0;exitDy=0;entryX=0.5;entryY=0;entryDx=0;entryDy=0;" edge="1" parent="1" source="ld3Kfe4ePmxYZ37ksmQU-39" target="ld3Kfe4ePmxYZ37ksmQU-40">
          <mxGeometry relative="1" as="geometry" />
        </mxCell>
        <mxCell id="ld3Kfe4ePmxYZ37ksmQU-39" value="push x in x_coords" style="rounded=0;whiteSpace=wrap;html=1;" vertex="1" parent="1">
          <mxGeometry x="1220" y="770" width="120" height="60" as="geometry" />
        </mxCell>
        <mxCell id="ld3Kfe4ePmxYZ37ksmQU-43" style="edgeStyle=orthogonalEdgeStyle;rounded=0;orthogonalLoop=1;jettySize=auto;html=1;entryX=1;entryY=0.5;entryDx=0;entryDy=0;" edge="1" parent="1" source="ld3Kfe4ePmxYZ37ksmQU-40" target="ld3Kfe4ePmxYZ37ksmQU-32">
          <mxGeometry relative="1" as="geometry">
            <mxPoint x="1390" y="300" as="targetPoint" />
            <Array as="points">
              <mxPoint x="1420" y="910" />
              <mxPoint x="1420" y="460" />
            </Array>
          </mxGeometry>
        </mxCell>
        <mxCell id="ld3Kfe4ePmxYZ37ksmQU-40" value="push y in x_coords" style="rounded=0;whiteSpace=wrap;html=1;" vertex="1" parent="1">
          <mxGeometry x="1220" y="880" width="120" height="60" as="geometry" />
        </mxCell>
        <mxCell id="ld3Kfe4ePmxYZ37ksmQU-47" style="edgeStyle=orthogonalEdgeStyle;rounded=0;orthogonalLoop=1;jettySize=auto;html=1;" edge="1" parent="1" source="ld3Kfe4ePmxYZ37ksmQU-44" target="ld3Kfe4ePmxYZ37ksmQU-46">
          <mxGeometry relative="1" as="geometry" />
        </mxCell>
        <mxCell id="ld3Kfe4ePmxYZ37ksmQU-55" style="edgeStyle=orthogonalEdgeStyle;rounded=0;orthogonalLoop=1;jettySize=auto;html=1;exitX=0;exitY=0.5;exitDx=0;exitDy=0;entryX=0;entryY=0.5;entryDx=0;entryDy=0;" edge="1" parent="1" source="ld3Kfe4ePmxYZ37ksmQU-44" target="ld3Kfe4ePmxYZ37ksmQU-54">
          <mxGeometry relative="1" as="geometry">
            <Array as="points">
              <mxPoint x="1140" y="1140" />
              <mxPoint x="1140" y="1490" />
            </Array>
          </mxGeometry>
        </mxCell>
        <mxCell id="ld3Kfe4ePmxYZ37ksmQU-44" value="i = 0; i &amp;lt; k; i++" style="shape=hexagon;perimeter=hexagonPerimeter2;whiteSpace=wrap;html=1;fixedSize=1;" vertex="1" parent="1">
          <mxGeometry x="1220" y="1100" width="120" height="80" as="geometry" />
        </mxCell>
        <mxCell id="ld3Kfe4ePmxYZ37ksmQU-52" style="edgeStyle=orthogonalEdgeStyle;rounded=0;orthogonalLoop=1;jettySize=auto;html=1;entryX=0.5;entryY=0;entryDx=0;entryDy=0;" edge="1" parent="1" source="ld3Kfe4ePmxYZ37ksmQU-46" target="ld3Kfe4ePmxYZ37ksmQU-51">
          <mxGeometry relative="1" as="geometry" />
        </mxCell>
        <mxCell id="ld3Kfe4ePmxYZ37ksmQU-46" value="j = (i + 1) % k;" style="rounded=1;whiteSpace=wrap;html=1;" vertex="1" parent="1">
          <mxGeometry x="1220" y="1230" width="120" height="60" as="geometry" />
        </mxCell>
        <mxCell id="ld3Kfe4ePmxYZ37ksmQU-50" style="edgeStyle=orthogonalEdgeStyle;rounded=0;orthogonalLoop=1;jettySize=auto;html=1;entryX=0.5;entryY=0;entryDx=0;entryDy=0;" edge="1" parent="1" source="ld3Kfe4ePmxYZ37ksmQU-48" target="ld3Kfe4ePmxYZ37ksmQU-44">
          <mxGeometry relative="1" as="geometry" />
        </mxCell>
        <mxCell id="ld3Kfe4ePmxYZ37ksmQU-48" value="res = 0;" style="rounded=1;whiteSpace=wrap;html=1;" vertex="1" parent="1">
          <mxGeometry x="1220" y="990" width="120" height="60" as="geometry" />
        </mxCell>
        <mxCell id="ld3Kfe4ePmxYZ37ksmQU-53" style="edgeStyle=orthogonalEdgeStyle;rounded=0;orthogonalLoop=1;jettySize=auto;html=1;exitX=1;exitY=0.5;exitDx=0;exitDy=0;entryX=1;entryY=0.5;entryDx=0;entryDy=0;" edge="1" parent="1" source="ld3Kfe4ePmxYZ37ksmQU-51" target="ld3Kfe4ePmxYZ37ksmQU-44">
          <mxGeometry relative="1" as="geometry" />
        </mxCell>
        <mxCell id="ld3Kfe4ePmxYZ37ksmQU-51" value="res =&amp;nbsp;x_coords[i] * y_coords[j] - x_coords[j] * y_coords[i]" style="rounded=1;whiteSpace=wrap;html=1;" vertex="1" parent="1">
          <mxGeometry x="1170" y="1340" width="220" height="60" as="geometry" />
        </mxCell>
        <mxCell id="ld3Kfe4ePmxYZ37ksmQU-54" value="return res/2" style="ellipse;whiteSpace=wrap;html=1;" vertex="1" parent="1">
          <mxGeometry x="1220" y="1450" width="120" height="80" as="geometry" />
        </mxCell>
        <mxCell id="ld3Kfe4ePmxYZ37ksmQU-56" value="print res" style="shape=parallelogram;perimeter=parallelogramPerimeter;whiteSpace=wrap;html=1;fixedSize=1;" vertex="1" parent="1">
          <mxGeometry x="280" y="970" width="100" height="60" as="geometry" />
        </mxCell>
      </root>
    </mxGraphModel>
  </diagram>
</mxfile>
